<svg width="25" height="26" viewBox="0 0 25 26" fill="none" xmlns="http://www.w3.org/2000/svg">
<path d="M12.667 0C5.94199 0 0.666992 3.075 0.666992 7V19C0.666992 22.925 5.94199 26 12.667 26C19.392 26 24.667 22.925 24.667 19V7C24.667 3.075 19.392 0 12.667 0ZM22.667 13C22.667 14.2 21.6795 15.425 19.967 16.3625C18.0295 17.425 15.442 18 12.667 18C9.89199 18 7.30449 17.425 5.36699 16.3625C3.65449 15.425 2.66699 14.2 2.66699 13V10.925C4.80449 12.7875 8.44199 14 12.667 14C16.892 14 20.5295 12.7875 22.667 10.925V13ZM19.967 22.3625C18.0295 23.425 15.442 24 12.667 24C9.89199 24 7.30449 23.425 5.36699 22.3625C3.65449 21.425 2.66699 20.2 2.66699 19V16.925C4.80449 18.7875 8.44199 20 12.667 20C16.892 20 20.5295 18.7875 22.667 16.925V19C22.667 20.2 21.6795 21.425 19.967 22.3625Z" fill="#6A8DAB"/>
</svg>
