<svg width="32" height="32" viewBox="0 0 32 32" fill="none" xmlns="http://www.w3.org/2000/svg">
<path d="M25.5996 19.708C24.453 20.7614 22.933 21.348 21.373 21.3347H8.49297C3.0663 20.948 3.05297 13.068 8.49297 12.6813H8.5463C4.8263 2.33468 20.5463 -1.78532 22.3463 9.06802C27.373 9.70802 29.413 16.388 25.5996 19.708Z" fill="#008080"/>
<path d="M25 28C25 28.5467 24.5467 29 24 29H18.6667C18.6 29 18.5467 29 18.48 28.9734C18.0933 29.96 17.12 30.6667 16 30.6667C14.88 30.6667 13.9067 29.96 13.52 28.9734C13.4533 29 13.4 29 13.3333 29H8C7.45333 29 7 28.5467 7 28C7 27.4534 7.45333 27 8 27H13.3333C13.4 27 13.4533 27 13.52 27.0267C13.7867 26.3334 14.3333 25.7867 15.0267 25.52C15 25.4534 15 25.4 15 25.3334V21.3334H17V25.3334C17 25.4 17 25.4534 16.9733 25.52C17.6667 25.7867 18.2133 26.3334 18.48 27.0267C18.5467 27 18.6 27 18.6667 27H24C24.5467 27 25 27.4534 25 28Z" fill="#008080"/>
</svg>
